<?xml version="1.0" encoding="utf-8"?>
<!-- Generator: Adobe Illustrator 16.0.0, SVG Export Plug-In . SVG Version: 6.00 Build 0)  -->
<svg version="1.2" baseProfile="tiny" xmlns="http://www.w3.org/2000/svg" xmlns:xlink="http://www.w3.org/1999/xlink" x="0px"
	 y="0px" width="595.28px" height="841.89px" viewBox="0 0 595.28 841.89" xml:space="preserve">
<g id="Layer_2">
	<rect x="66.333" y="347" stroke="#FFFFFF" stroke-miterlimit="10" width="515.333" height="91"/>
	<g>
	</g>
</g>
<g id="Layer_1">
	<g>
		<path fill="#FFFFFF" d="M491.283,383.492c-0.939,0-1.703-0.764-1.703-1.703s0.764-1.703,1.703-1.703s1.704,0.764,1.704,1.703
			S492.223,383.492,491.283,383.492z M491.283,380.835c-0.525,0-0.953,0.428-0.953,0.953s0.428,0.953,0.953,0.953
			s0.954-0.428,0.954-0.953S491.809,380.835,491.283,380.835z"/>
		<path fill="#FFFFFF" d="M478.862,398.732c-0.939,0-1.704-0.765-1.704-1.704c0-0.939,0.765-1.703,1.704-1.703
			s1.704,0.764,1.704,1.703C480.566,397.967,479.802,398.732,478.862,398.732z M478.862,396.075c-0.526,0-0.954,0.428-0.954,0.953
			c0,0.526,0.428,0.954,0.954,0.954s0.954-0.428,0.954-0.954C479.816,396.502,479.389,396.075,478.862,396.075z"/>
		<path fill="#FFFFFF" d="M491.5,398.202c-0.939,0-1.703-0.764-1.703-1.703s0.764-1.703,1.703-1.703s1.703,0.764,1.703,1.703
			S492.439,398.202,491.5,398.202z M491.5,395.545c-0.525,0-0.953,0.428-0.953,0.953s0.428,0.953,0.953,0.953
			s0.953-0.428,0.953-0.953S492.025,395.545,491.5,395.545z"/>
		<path fill="#FFFFFF" d="M478.228,384.582c-0.939,0-1.704-0.764-1.704-1.703c0-0.939,0.765-1.704,1.704-1.704
			c0.938,0,1.703,0.765,1.703,1.704C479.931,383.817,479.166,384.582,478.228,384.582z M478.228,381.924
			c-0.526,0-0.954,0.428-0.954,0.954c0,0.525,0.428,0.953,0.954,0.953c0.525,0,0.953-0.428,0.953-0.953
			C479.181,382.353,478.753,381.924,478.228,381.924z"/>
		<path fill="#FFFFFF" d="M485.451,399.004c-0.939,0-1.703-0.765-1.703-1.704c0-0.939,0.764-1.703,1.703-1.703
			s1.704,0.764,1.704,1.703C487.155,398.24,486.391,399.004,485.451,399.004z M485.451,396.347c-0.525,0-0.953,0.428-0.953,0.953
			c0,0.526,0.428,0.954,0.953,0.954c0.526,0,0.954-0.428,0.954-0.954C486.405,396.775,485.978,396.347,485.451,396.347z"/>
		<path fill="#FFFFFF" d="M483.219,381.661c-0.939,0-1.703-0.764-1.703-1.703s0.764-1.703,1.703-1.703s1.704,0.764,1.704,1.703
			S484.158,381.661,483.219,381.661z M483.219,379.004c-0.525,0-0.953,0.428-0.953,0.953s0.428,0.953,0.953,0.953
			c0.526,0,0.954-0.428,0.954-0.953S483.745,379.004,483.219,379.004z"/>
		<path fill="#FFFFFF" d="M485.827,386.56l0.804-0.558l4.494,3.134v6.109c0.121-0.037,0.242-0.076,0.375-0.076
			s0.254,0.04,0.375,0.076v-6.501l-2.032-1.417l1.816-1.258v-3.029c-0.122,0.037-0.243,0.076-0.376,0.076s-0.253-0.039-0.374-0.076
			v2.636l-1.722,1.193l-1.9-1.324l1.355-0.94v-4.146h-0.75v3.753l-2.815,1.954v3.166l-1.483-1.029v-7.094
			c-0.121,0.037-0.242,0.076-0.375,0.076s-0.254-0.039-0.375-0.076v7.487l2.233,1.55v2.718l-3.741-2.596v-7.249h-0.75v5.012
			l-1.984-1.375v-2.625c-0.121,0.037-0.241,0.076-0.374,0.076c-0.134,0-0.254-0.039-0.376-0.076v3.018l2.734,1.896v1.717
			l0.785,0.545l-2.884,1.947v2.522c0.121-0.037,0.242-0.076,0.375-0.076s0.254,0.039,0.375,0.076v-2.124l2.794-1.887l3.046,2.113
			v2.17c0.121-0.037,0.241-0.076,0.374-0.076c0.134,0,0.255,0.039,0.376,0.076v-6.807l2.065,1.434v3.753h0.75v-4.146l-2.815-1.954
			V386.56z"/>
	</g>
	<g>
		<g>
			
				<line fill="none" stroke="#FFFFFF" stroke-width="1.2" stroke-miterlimit="10" x1="176.892" y1="379.363" x2="176.892" y2="394.64"/>
			
				<line fill="none" stroke="#FFFFFF" stroke-width="1.2" stroke-miterlimit="10" x1="181.532" y1="385.883" x2="172.852" y2="385.883"/>
			
				<line fill="none" stroke="#FFFFFF" stroke-width="1.2" stroke-miterlimit="10" x1="182.283" y1="385.883" x2="185.092" y2="385.883"/>
			
				<line fill="none" stroke="#FFFFFF" stroke-width="1.2" stroke-miterlimit="10" x1="169.693" y1="385.883" x2="172.25" y2="385.883"/>
			
				<line fill="none" stroke="#FFFFFF" stroke-width="1.2" stroke-miterlimit="10" x1="167.718" y1="385.883" x2="168.808" y2="385.883"/>
			
				<line fill="none" stroke="#FFFFFF" stroke-width="1.2" stroke-miterlimit="10" x1="179.281" y1="383.495" x2="173.615" y2="389.16"/>
			
				<line fill="none" stroke="#FFFFFF" stroke-width="1.2" stroke-miterlimit="10" x1="180.501" y1="382.274" x2="182.564" y2="380.212"/>
			
				<line fill="none" stroke="#FFFFFF" stroke-width="1.2" stroke-miterlimit="10" x1="179.681" y1="388.672" x2="174.172" y2="383.164"/>
			
				<line fill="none" stroke="#FFFFFF" stroke-width="1.2" stroke-miterlimit="10" x1="171.622" y1="380.613" x2="170.979" y2="379.971"/>
			
				<line fill="none" stroke="#FFFFFF" stroke-width="1.2" stroke-miterlimit="10" x1="173.536" y1="382.528" x2="172.22" y2="381.211"/>
		</g>
		<g>
			<path fill="#FFFFFF" d="M171.616,390.703c0,1.266-1.026,2.289-2.287,2.289c-1.268,0-2.292-1.023-2.292-2.289
				c0-1.263,1.023-2.289,2.292-2.289C170.59,388.414,171.616,389.44,171.616,390.703z"/>
			<path fill="#FFFFFF" d="M181.637,390.703c0,1.266,1.026,2.289,2.287,2.289c1.269,0,2.294-1.023,2.294-2.289
				c0-1.263-1.026-2.289-2.294-2.289C182.663,388.414,181.637,389.44,181.637,390.703z"/>
			<path fill="#FFFFFF" d="M174.332,398.338c0-0.502,0.182-0.957,0.474-1.319c-1.227-0.458-1.859-1.198-2.414-1.884
				c-0.336-0.419-1.109-1.106-1.12-1.117c-0.362-0.299-1.325-0.489-1.325-0.489h-1.237l-2.083,0.995v4.859h5.404v-1.731
				c0.587,0.513,1.356,1.006,2.417,1.344C174.378,398.788,174.332,398.569,174.332,398.338z"/>
			<path fill="#FFFFFF" d="M184.546,393.528c0.098,0.005-1.24,0-1.24,0c-0.502,0-0.963,0.19-1.323,0.49
				c-0.013,0.01-0.029,0.01-0.039,0.018c-0.424,0.281-0.745,0.678-1.083,1.1c-0.758,0.938-1.617,2.008-4.021,2.273
				c-0.544,0.062-0.935,0.552-0.875,1.096c0.055,0.508,0.484,0.883,0.984,0.883c0.036,0,0.073-0.003,0.112-0.005
				c2.037-0.227,3.297-0.95,4.164-1.719v1.719h5.401v-5.203C186.626,394.18,184.448,393.523,184.546,393.528z"/>
		</g>
	</g>
	<g>
		<path fill="#FFFFFF" d="M245.646,389.043c0.006,0.051-0.292,1.02-1.491,1.02c-1.278,0-1.482-1.268-1.482-1.268h-9.917v1.027
			h-4.946c0,1.629,2.789,3.426,4.311,3.426c0.044,0,0.089,0.004,0.133,0.006c0.739,0.07,1.312,0.701,1.312,1.457
			c0,0.404-0.166,0.771-0.433,1.035h-0.454v3.469h10.442v-3.469l0,0c-0.504-0.238-0.853-0.75-0.853-1.346
			c0-0.82,0.667-1.486,1.488-1.486c0.485,0,4.053,0.008,4.053,0.008v-3.879H245.646z"/>
		<rect x="234.042" y="379.117" fill="#FFFFFF" width="4.5" height="8.25"/>
		<rect x="232.417" y="382.586" fill="#FFFFFF" width="15.393" height="1.312"/>
	</g>
	<g>
		<path fill="#FFFFFF" d="M294.913,396.75c0,0.371,0.089,2.996,2.806,2.996c2.717,0,3.605-2.756,3.605-2.756
			s0.904,2.756,3.621,2.756c2.718,0,2.823-2.625,2.823-2.996s-0.155-1.133-0.829-1.062c-0.598,0.062-0.76,0.818-0.787,0.988
			c0.067-0.178,0.737-0.498,0.867-0.129c0.14,0.395-0.109,1.582-1.016,1.512s-1.219-1.512-2.334-2.395s-2.346,0-2.346,0
			s-1.214-0.883-2.329,0s-1.42,2.324-2.325,2.395c-0.906,0.07-1.151-1.117-1.012-1.512"/>
		<path fill="#FFFFFF" d="M293.393,389.152c0,1.096,3.559,2.234,7.948,2.234c4.389,0,7.947-1.139,7.947-2.234
			c0-0.611-1.101-1.156-2.829-1.52v0.742c0,0-0.349,1.242-5.118,1.242c-4.77,0-5.119-1.242-5.119-1.242"/>
		<path fill="#FFFFFF" d="M296.222,387.014c0,0,0.349,1.242,5.119,1.242c4.77,0,5.118-1.242,5.118-1.242v-0.344v-5.34v-0.344
			c0,0-0.35-1.24-5.119-1.24s-5.118,1.24-5.118,1.24"/>
		<path fill="none" stroke="#000000" stroke-width="0.5" stroke-miterlimit="10" d="M296.841,381.41c0,0,0.307,0.766,4.5,0.766
			s4.499-0.766,4.499-0.766"/>
	</g>
	<g>
		<path fill="#FFFFFF" d="M365.087,389.763c-0.811,0.766-1.896,1.244-3.097,1.244s-2.287-0.478-3.098-1.244l-5.002,1.548v8.196
			h16.197v-8.196L365.087,389.763z"/>
		<path fill="#FFFFFF" d="M361.99,379.507c-2.502,0-4.539,2.037-4.539,4.54c0,2.502,2.037,4.538,4.539,4.538
			s4.537-2.036,4.537-4.538C366.527,381.543,364.492,379.507,361.99,379.507z"/>
	</g>
	<g>
		<polyline fill="none" stroke="#FFFFFF" stroke-width="1.5" stroke-miterlimit="10" points="415.359,396.707 419.253,379.732 
			433.188,379.732 		"/>
		<g>
			<polygon fill="#FFFFFF" stroke="#FFFFFF" stroke-width="1.5" stroke-miterlimit="10" points="422.304,399.088 436.238,399.088 
				433.52,379.732 419.585,379.732 			"/>
			
				<line fill="#FFFFFF" stroke="#FFFFFF" stroke-width="1.5" stroke-miterlimit="10" x1="416.775" y1="391.274" x2="421.084" y2="391.274"/>
			<path d="M430.296,394.003c-0.066-0.177-0.126-0.413-0.179-0.718c-0.232,0.224-0.475,0.4-0.729,0.529
				c-0.35,0.176-0.729,0.266-1.127,0.266c-0.852-0.02-1.586-0.369-2.244-1.041c-0.65-0.67-1.045-1.479-1.171-2.403
				c-0.142-1.026,0.039-1.868,0.537-2.5c0.489-0.62,1.137-0.935,1.925-0.935c0.482,0.01,0.885,0.098,1.27,0.262
				c0.244,0.103,0.485,0.238,0.723,0.404l-0.254-1.855c-0.087-0.629-0.149-1.026-0.188-1.189c-0.028-0.119-0.084-0.207-0.172-0.27
				c-0.053-0.037-0.192-0.101-0.527-0.107l-0.316-0.01l-0.102-0.729l0.229-0.001c0.545-0.003,1.135-0.09,1.754-0.258l0.203-0.004
				l0.17,0.003l1.131,8.231c0.096,0.69,0.165,1.109,0.205,1.246c0.029,0.104,0.084,0.174,0.172,0.225
				c0.07,0.04,0.233,0.09,0.607,0.098l0.17,0.005l0.102,0.733h-0.23c-0.664,0-1.241,0.048-1.732,0.145l-0.166,0.031L430.296,394.003
				z M427.609,388.074c-0.438,0-0.77,0.17-1.016,0.522c-0.262,0.372-0.331,1.019-0.206,1.923c0.128,0.934,0.394,1.629,0.787,2.068
				c0.389,0.433,0.81,0.648,1.287,0.66c0.001,0,0.003,0,0.003,0c0.34,0,0.6-0.07,0.836-0.213c0.232-0.141,0.441-0.357,0.623-0.643
				l-0.486-3.535c-0.307-0.246-0.609-0.438-0.904-0.57c-0.305-0.135-0.602-0.207-0.881-0.213l-0.043-0.2V388.074z"/>
		</g>
	</g>
	<g>
		<polygon fill="#FFFFFF" points="105.853,394.484 103.352,397.426 103.352,399.23 118.244,399.23 118.244,397.426 115.743,394.484 
					"/>
		<polyline fill="none" stroke="#FFFFFF" stroke-miterlimit="10" points="107.054,382.849 108.171,384.289 108.171,391.756 
			103.352,397.426 103.352,399.23 118.244,399.23 118.244,397.426 113.424,391.756 113.424,384.289 114.542,382.849 		"/>
		<circle fill="#FFFFFF" stroke="#FFFFFF" stroke-miterlimit="10" cx="109.154" cy="380.237" r="1.008"/>
		<circle fill="#FFFFFF" stroke="#FFFFFF" stroke-miterlimit="10" cx="111.377" cy="383.027" r="0.637"/>
		<circle fill="#FFFFFF" cx="112.438" cy="380.372" r="0.798"/>
		<circle fill="#FFFFFF" stroke="#FFFFFF" stroke-miterlimit="10" cx="110.525" cy="386.241" r="0.637"/>
	</g>
	<g>
		<g>
			<path d="M491.283,576.825c-0.939,0-1.703-0.765-1.703-1.703s0.764-1.703,1.703-1.703s1.704,0.765,1.704,1.703
				S492.223,576.825,491.283,576.825z M491.283,574.169c-0.525,0-0.953,0.428-0.953,0.953s0.428,0.953,0.953,0.953
				s0.954-0.428,0.954-0.953S491.809,574.169,491.283,574.169z"/>
		</g>
		<g>
			<path d="M478.862,592.065c-0.939,0-1.704-0.765-1.704-1.704s0.765-1.703,1.704-1.703s1.704,0.764,1.704,1.703
				S479.802,592.065,478.862,592.065z M478.862,589.408c-0.526,0-0.954,0.428-0.954,0.953s0.428,0.954,0.954,0.954
				s0.954-0.429,0.954-0.954S479.389,589.408,478.862,589.408z"/>
		</g>
		<g>
			<path d="M491.5,591.535c-0.939,0-1.703-0.764-1.703-1.703s0.764-1.703,1.703-1.703s1.703,0.764,1.703,1.703
				S492.439,591.535,491.5,591.535z M491.5,588.879c-0.525,0-0.953,0.428-0.953,0.953s0.428,0.953,0.953,0.953
				s0.953-0.428,0.953-0.953S492.025,588.879,491.5,588.879z"/>
		</g>
		<g>
			<path d="M478.228,577.915c-0.939,0-1.704-0.765-1.704-1.703c0-0.939,0.765-1.704,1.704-1.704c0.938,0,1.703,0.765,1.703,1.704
				C479.931,577.15,479.166,577.915,478.228,577.915z M478.228,575.258c-0.526,0-0.954,0.428-0.954,0.954
				c0,0.525,0.428,0.953,0.954,0.953c0.525,0,0.953-0.428,0.953-0.953C479.181,575.686,478.753,575.258,478.228,575.258z"/>
		</g>
		<g>
			<path d="M485.451,592.338c-0.939,0-1.703-0.765-1.703-1.704c0-0.938,0.764-1.703,1.703-1.703s1.704,0.765,1.704,1.703
				C487.155,591.573,486.391,592.338,485.451,592.338z M485.451,589.681c-0.525,0-0.953,0.428-0.953,0.953
				c0,0.526,0.428,0.954,0.953,0.954c0.526,0,0.954-0.428,0.954-0.954C486.405,590.108,485.978,589.681,485.451,589.681z"/>
		</g>
		<g>
			<path d="M483.219,574.994c-0.939,0-1.703-0.764-1.703-1.703s0.764-1.703,1.703-1.703s1.704,0.764,1.704,1.703
				S484.158,574.994,483.219,574.994z M483.219,572.338c-0.525,0-0.953,0.428-0.953,0.953s0.428,0.953,0.953,0.953
				c0.526,0,0.954-0.428,0.954-0.953S483.745,572.338,483.219,572.338z"/>
		</g>
		<g>
			<path d="M485.827,579.894l0.804-0.558l4.494,3.135v6.109c0.121-0.037,0.242-0.076,0.375-0.076s0.254,0.039,0.375,0.076v-6.502
				l-2.032-1.416l1.816-1.259v-3.028c-0.122,0.036-0.243,0.075-0.376,0.075s-0.253-0.039-0.374-0.075v2.636l-1.722,1.193l-1.9-1.324
				l1.355-0.94v-4.146h-0.75v3.753l-2.815,1.954v3.166l-1.483-1.029v-7.095c-0.121,0.037-0.242,0.076-0.375,0.076
				s-0.254-0.039-0.375-0.076v7.487l2.233,1.55v2.718l-3.741-2.596v-7.249h-0.75v5.012l-1.984-1.375v-2.625
				c-0.121,0.036-0.241,0.075-0.374,0.075c-0.134,0-0.254-0.039-0.376-0.075v3.018l2.734,1.896v1.717l0.785,0.545l-2.884,1.947
				v2.522c0.121-0.037,0.242-0.076,0.375-0.076s0.254,0.039,0.375,0.076v-2.124l2.794-1.888l3.046,2.113v2.17
				c0.121-0.036,0.241-0.075,0.374-0.075c0.134,0,0.255,0.039,0.376,0.075v-6.807l2.065,1.434v3.753h0.75v-4.146l-2.815-1.954
				V579.894z"/>
		</g>
	</g>
	<g>
		<g>
			<g>
				<rect x="176.292" y="572.696" width="1.2" height="15.277"/>
			</g>
			<g>
				<rect x="172.852" y="578.617" width="8.68" height="1.199"/>
			</g>
			<g>
				<rect x="182.283" y="578.617" width="2.809" height="1.199"/>
			</g>
			<g>
				<rect x="169.693" y="578.617" width="2.556" height="1.199"/>
			</g>
			<g>
				<rect x="167.718" y="578.617" width="1.089" height="1.199"/>
			</g>
			<g>
				
					<rect x="175.848" y="575.655" transform="matrix(0.7075 0.7067 -0.7067 0.7075 461.2545 44.8472)" width="1.199" height="8.012"/>
			</g>
			<g>
				
					<rect x="180.932" y="573.119" transform="matrix(0.7067 0.7075 -0.7075 0.7067 459.7641 40.0865)" width="1.201" height="2.916"/>
			</g>
			<g>
				
					<rect x="173.031" y="578.652" transform="matrix(0.7071 0.7071 -0.7071 0.7071 461.3895 44.5403)" width="7.791" height="1.199"/>
			</g>
			<g>
				<rect x="170.846" y="573.025" transform="matrix(0.7079 0.7063 -0.7063 0.7079 455.1863 46.5596)" width="0.908" height="1.2"/>
			</g>
			<g>
				<rect x="171.948" y="574.603" transform="matrix(0.707 0.7072 -0.7072 0.707 457.463 46.2825)" width="1.861" height="1.199"/>
			</g>
		</g>
		<g>
			<g>
				<path d="M171.616,584.037c0,1.266-1.026,2.289-2.287,2.289c-1.268,0-2.292-1.023-2.292-2.289c0-1.264,1.023-2.289,2.292-2.289
					C170.59,581.748,171.616,582.773,171.616,584.037z"/>
			</g>
			<g>
				<path d="M181.637,584.037c0,1.266,1.026,2.289,2.287,2.289c1.269,0,2.294-1.023,2.294-2.289c0-1.264-1.026-2.289-2.294-2.289
					C182.663,581.748,181.637,582.773,181.637,584.037z"/>
			</g>
			<g>
				<path d="M174.332,591.672c0-0.502,0.182-0.957,0.474-1.319c-1.227-0.458-1.859-1.198-2.414-1.884
					c-0.336-0.42-1.109-1.107-1.12-1.117c-0.362-0.299-1.325-0.49-1.325-0.49h-1.237l-2.083,0.996v4.859h5.404v-1.732
					c0.587,0.514,1.356,1.007,2.417,1.345C174.378,592.121,174.332,591.902,174.332,591.672z"/>
			</g>
			<g>
				<path d="M184.546,586.861c0.098,0.006-1.24,0-1.24,0c-0.502,0-0.963,0.191-1.323,0.49c-0.013,0.01-0.029,0.01-0.039,0.018
					c-0.424,0.281-0.745,0.678-1.083,1.1c-0.758,0.938-1.617,2.008-4.021,2.273c-0.544,0.062-0.935,0.553-0.875,1.096
					c0.055,0.508,0.484,0.883,0.984,0.883c0.036,0,0.073-0.002,0.112-0.004c2.037-0.227,3.297-0.951,4.164-1.719v1.719h5.401v-5.203
					C186.626,587.514,184.448,586.857,184.546,586.861z"/>
			</g>
		</g>
	</g>
	<g>
		<g>
			<path d="M245.646,582.377c0.006,0.051-0.292,1.02-1.491,1.02c-1.278,0-1.482-1.268-1.482-1.268h-9.917v1.027h-4.946
				c0,1.629,2.789,3.426,4.311,3.426c0.044,0,0.089,0.004,0.133,0.006c0.739,0.07,1.312,0.701,1.312,1.457
				c0,0.404-0.166,0.771-0.433,1.035h-0.454v3.469h10.442v-3.469l0,0c-0.504-0.238-0.853-0.75-0.853-1.346
				c0-0.82,0.667-1.486,1.488-1.486c0.485,0,4.053,0.008,4.053,0.008v-3.879H245.646z"/>
		</g>
		<g>
			<rect x="234.042" y="572.451" width="4.5" height="8.25"/>
		</g>
		<g>
			<rect x="232.417" y="575.92" width="15.393" height="1.312"/>
		</g>
	</g>
	<g>
		<g>
			<path d="M294.913,590.084c0,0.371,0.089,2.996,2.806,2.996c2.717,0,3.605-2.756,3.605-2.756s0.904,2.756,3.621,2.756
				c2.718,0,2.823-2.625,2.823-2.996s-0.155-1.133-0.829-1.062c-0.598,0.062-0.76,0.818-0.787,0.988
				c0.067-0.178,0.737-0.498,0.867-0.129c0.14,0.395-0.109,1.582-1.016,1.512s-1.219-1.512-2.334-2.395s-2.346,0-2.346,0
				s-1.214-0.883-2.329,0s-1.42,2.324-2.325,2.395c-0.906,0.07-1.151-1.117-1.012-1.512"/>
		</g>
		<g>
			<path d="M293.393,582.486c0,1.096,3.559,2.234,7.948,2.234c4.389,0,7.947-1.139,7.947-2.234c0-0.611-1.101-1.156-2.829-1.52
				v0.742c0,0-0.349,1.242-5.118,1.242c-4.77,0-5.119-1.242-5.119-1.242"/>
		</g>
		<g>
			<path d="M296.222,580.348c0,0,0.349,1.242,5.119,1.242c4.77,0,5.118-1.242,5.118-1.242v-0.344v-5.34v-0.344
				c0,0-0.35-1.24-5.119-1.24s-5.118,1.24-5.118,1.24"/>
		</g>
		<g>
			<path d="M301.341,575.76c-4.048,0-4.646-0.706-4.732-0.923l0.232-0.093l0.217-0.123c0.005,0.007,0.516,0.639,4.283,0.639
				s4.277-0.632,4.282-0.639l0.449,0.216C305.985,575.054,305.389,575.76,301.341,575.76z"/>
		</g>
	</g>
	<g>
		<g>
			<path d="M365.087,583.096c-0.811,0.766-1.896,1.244-3.097,1.244s-2.287-0.479-3.098-1.244l-5.002,1.549v8.196h16.197v-8.196
				L365.087,583.096z"/>
		</g>
		<g>
			<path d="M361.99,572.84c-2.502,0-4.539,2.037-4.539,4.54c0,2.502,2.037,4.538,4.539,4.538s4.537-2.036,4.537-4.538
				C366.527,574.877,364.492,572.84,361.99,572.84z"/>
		</g>
	</g>
	<g>
		<g>
			<polygon points="416.091,590.209 414.628,589.873 418.655,572.316 433.188,572.316 433.188,573.816 419.851,573.816 			"/>
		</g>
		<g>
			<g>
				<polygon points="422.304,592.422 436.238,592.422 433.52,573.066 419.585,573.066 				"/>
				<path d="M437.101,593.172h-15.449l-2.929-20.855h15.449L437.101,593.172z M422.956,591.672h12.42l-2.509-17.855h-12.42
					L422.956,591.672z"/>
			</g>
			<g>
				<line x1="416.775" y1="584.607" x2="421.084" y2="584.607"/>
				<rect x="416.775" y="583.857" width="4.309" height="1.5"/>
			</g>
			<g>
				<path fill="#FFFFFF" d="M430.296,587.336c-0.066-0.176-0.126-0.412-0.179-0.717c-0.232,0.223-0.475,0.4-0.729,0.529
					c-0.35,0.176-0.729,0.266-1.127,0.266c-0.852-0.02-1.586-0.369-2.244-1.041c-0.65-0.67-1.045-1.479-1.171-2.404
					c-0.142-1.025,0.039-1.867,0.537-2.5c0.489-0.619,1.137-0.934,1.925-0.934c0.482,0.01,0.885,0.098,1.27,0.262
					c0.244,0.102,0.485,0.238,0.723,0.404l-0.254-1.855c-0.087-0.629-0.149-1.027-0.188-1.189c-0.028-0.119-0.084-0.207-0.172-0.27
					c-0.053-0.037-0.192-0.102-0.527-0.107l-0.316-0.01l-0.102-0.73h0.229c0.545-0.004,1.135-0.09,1.754-0.258l0.203-0.004
					l0.17,0.002l1.131,8.232c0.096,0.689,0.165,1.109,0.205,1.246c0.029,0.104,0.084,0.174,0.172,0.225
					c0.07,0.039,0.233,0.09,0.607,0.098l0.17,0.004l0.102,0.734h-0.23c-0.664,0-1.241,0.047-1.732,0.145l-0.166,0.031
					L430.296,587.336z M427.609,581.408c-0.438,0-0.77,0.17-1.016,0.521c-0.262,0.373-0.331,1.02-0.206,1.924
					c0.128,0.934,0.394,1.629,0.787,2.068c0.389,0.432,0.81,0.648,1.287,0.66c0.001,0,0.003,0,0.003,0c0.34,0,0.6-0.07,0.836-0.213
					c0.232-0.141,0.441-0.357,0.623-0.643l-0.486-3.535c-0.307-0.246-0.609-0.438-0.904-0.57c-0.305-0.135-0.602-0.207-0.881-0.213
					l-0.043-0.201V581.408z"/>
			</g>
		</g>
	</g>
	<g>
		<g>
			<polygon points="105.853,587.818 103.352,590.76 103.352,592.563 118.244,592.563 118.244,590.76 115.743,587.818 			"/>
		</g>
		<g>
			<polygon points="118.744,593.063 102.852,593.063 102.852,590.576 107.671,584.906 107.671,577.793 106.659,576.488 
				107.449,575.875 108.671,577.451 108.671,585.273 103.852,590.943 103.852,592.063 117.744,592.063 117.744,590.943 
				112.924,585.273 112.924,577.451 114.147,575.875 114.937,576.488 113.924,577.793 113.924,584.906 118.744,590.576 			"/>
		</g>
		<g>
			<circle cx="109.154" cy="573.57" r="1.008"/>
			<path d="M109.153,575.078c-0.831,0-1.507-0.677-1.507-1.508s0.676-1.507,1.507-1.507c0.832,0,1.508,0.676,1.508,1.507
				S109.985,575.078,109.153,575.078z M109.153,573.063c-0.28,0-0.507,0.228-0.507,0.507c0,0.28,0.228,0.508,0.507,0.508
				s0.508-0.228,0.508-0.508C109.661,573.291,109.433,573.063,109.153,573.063z"/>
		</g>
		<g>
			<circle cx="111.377" cy="576.36" r="0.637"/>
			<path d="M111.377,577.498c-0.627,0-1.137-0.511-1.137-1.138c0-0.626,0.51-1.136,1.137-1.136c0.626,0,1.136,0.51,1.136,1.136
				C112.514,576.987,112.004,577.498,111.377,577.498z M111.377,576.225c-0.076,0-0.137,0.061-0.137,0.136
				c0,0.151,0.273,0.152,0.273,0C111.514,576.285,111.453,576.225,111.377,576.225z"/>
		</g>
		<g>
			<circle cx="112.438" cy="573.705" r="0.798"/>
		</g>
		<g>
			<circle cx="110.525" cy="579.574" r="0.637"/>
			<path d="M110.525,580.712c-0.627,0-1.137-0.511-1.137-1.138c0-0.626,0.51-1.136,1.137-1.136c0.626,0,1.136,0.51,1.136,1.136
				C111.662,580.201,111.152,580.712,110.525,580.712z M110.525,579.438c-0.076,0-0.137,0.061-0.137,0.136
				c0,0.151,0.273,0.152,0.273,0C110.662,579.499,110.601,579.438,110.525,579.438z"/>
		</g>
	</g>
</g>
</svg>
