<?xml version="1.0" encoding="utf-8"?>
<!-- Generator: Adobe Illustrator 16.0.0, SVG Export Plug-In . SVG Version: 6.00 Build 0)  -->
<!DOCTYPE svg PUBLIC "-//W3C//DTD SVG 1.1//EN" "http://www.w3.org/Graphics/SVG/1.1/DTD/svg11.dtd">
<svg version="1.1" id="Layer_1" xmlns="http://www.w3.org/2000/svg" xmlns:xlink="http://www.w3.org/1999/xlink" x="0px" y="0px"
	 width="200px" height="40px" viewBox="0 0 200 40" enable-background="new 0 0 200 40" xml:space="preserve">
<rect width="22" height="22"/>
<rect x="32" width="22" height="22"/>
<path fill="#FFFFFF" d="M44.644,6.347h2.318v-2.87h-2.318c-1.916,0.001-3.475,1.69-3.475,3.767v1.448h-2.318v2.879l2.318-0.001
	v6.972h2.896v-6.971h2.897V8.692h-2.897V7.216C44.065,6.72,44.372,6.347,44.644,6.347z"/>
<rect x="63" width="22" height="22"/>
<g>
	<rect x="68.083" y="8.307" fill="#FFFFFF" width="2.934" height="10.27"/>
	<path fill="#FFFFFF" d="M79.285,8.892c-1.092-0.613-2.705-0.667-3.865-0.135v-0.45h-2.936v10.27h2.936v-6.569l0.471-0.502
		c0.297-0.144,1.683-0.209,1.96-0.054c0.208,0.116,0.503,0.597,0.503,0.889v6.236h2.936V12.34
		C81.289,10.993,80.446,9.542,79.285,8.892z"/>
	<circle fill="#FFFFFF" cx="69.552" cy="5.372" r="1.833"/>
</g>
<rect x="94" width="22" height="22"/>
<polygon id="Plus" fill="#FFFFFF" points="110.5,9.5 106.5,9.5 106.5,5.5 103.5,5.5 103.5,9.5 99.5,9.5 99.5,12.5 103.5,12.5 
	103.5,16.5 106.5,16.5 106.5,12.5 110.5,12.5 "/>
<path fill="#FFFFFF" d="M18.5,6.348c-0.552,0.245-1.145,0.411-1.768,0.485c0.635-0.381,1.124-0.984,1.353-1.703
	c-0.595,0.353-1.253,0.609-1.954,0.747c-0.562-0.598-1.361-0.972-2.246-0.972c-1.7,0-3.078,1.377-3.078,3.077
	c0,0.242,0.027,0.477,0.08,0.702C8.33,8.555,6.062,7.33,4.544,5.468C4.279,5.923,4.127,6.452,4.127,7.015
	c0,1.067,0.543,2.009,1.369,2.562C4.992,9.561,4.518,9.422,4.103,9.192c0,0.013,0,0.025,0,0.039c0,1.491,1.061,2.735,2.468,3.018
	c-0.258,0.07-0.53,0.108-0.811,0.108c-0.198,0-0.391-0.02-0.579-0.056c0.391,1.223,1.528,2.112,2.875,2.137
	c-1.053,0.826-2.38,1.317-3.822,1.317c-0.249,0-0.494-0.015-0.734-0.043c1.362,0.873,2.98,1.383,4.718,1.383
	c5.66,0,8.755-4.689,8.755-8.756c0-0.133-0.003-0.266-0.009-0.398C17.566,7.507,18.087,6.965,18.5,6.348z"/>
</svg>
