<?xml version="1.0" encoding="utf-8"?>
<!-- Generator: Adobe Illustrator 16.0.0, SVG Export Plug-In . SVG Version: 6.00 Build 0)  -->
<svg version="1.2" baseProfile="tiny" id="Layer_1" xmlns="http://www.w3.org/2000/svg" xmlns:xlink="http://www.w3.org/1999/xlink"
	 x="0px" y="0px" width="557.708px" height="126.359px" viewBox="0 0 557.708 126.359" xml:space="preserve">
<path fill="#FFFFFF" d="M255.055,0h-31.969v4.252h13.622v24.251h4.724V4.252h13.623V0z M295.251,0h-4.726v11.575h-22.833V0h-4.725
	v28.503h4.725V15.826h22.833v12.677h4.726V0z M334.622,24.252h-25.119v-8.426h16.692v-4.251h-16.692V4.252h24.015V0h-28.74v28.503
	h29.845V24.252z"/>
<polygon fill="#FFFFFF" points="371.348,57.008 360.176,57.008 360.176,112.302 308.698,57.008 294.83,57.008 294.83,124.402 
	305.998,124.402 305.998,69.137 357.452,124.402 371.348,124.402 "/>
<polygon fill="#FFFFFF" points="464.435,114.35 405.043,114.35 405.043,94.428 444.514,94.428 444.514,84.375 405.043,84.375 
	405.043,67.061 461.827,67.061 461.827,57.008 393.873,57.008 393.873,124.404 464.435,124.404 "/>
<g>
	<path fill="#FFFFFF" d="M43.193,54.867c-11.73,0-21.566,3.011-29.509,9.029C4.562,70.786,0,79.66,0,90.52
		c0,11.046,4.499,19.981,13.498,26.809c7.88,5.956,17.779,8.937,29.695,8.937c8.5,0,15.809-1.257,21.921-3.771
		c6.112-2.514,11.59-6.594,16.431-12.241l-9.588-5.306c-6.828,7.387-16.197,11.078-28.113,11.078
		c-9.867,0-17.703-2.343-23.505-7.028c-5.803-4.686-8.703-10.845-8.703-18.478c0-7.386,2.932-13.467,8.797-18.247
		c5.864-4.776,13.451-7.168,22.76-7.168c12.287,0,21.843,3.632,28.67,10.894l10.146-3.631
		C73.011,60.701,60.072,54.867,43.193,54.867"/>
	<path fill="#FFFFFF" d="M539.648,98.153c5.336-0.868,9.524-2.917,12.565-6.144c3.289-3.475,4.935-8.067,4.935-13.777
		c0-6.517-2.017-11.683-6.05-15.499c-4.036-3.817-9.59-5.726-16.663-5.726h-53.154v67.397h11.172V98.711h34.019l18.24,25.692h12.996
		L539.648,98.153z M492.453,88.657V67.061h39.281c9.312,0,13.963,3.726,13.963,11.173c0,6.95-4.312,10.423-12.938,10.423H492.453z"
		/>
	<path fill="#FFFFFF" d="M258.782,98.153c5.337-0.868,9.526-2.917,12.568-6.143c3.287-3.476,4.932-8.068,4.932-13.778
		c0-6.517-2.017-11.683-6.05-15.499c-4.035-3.817-9.588-5.726-16.664-5.726h-53.152v67.397h11.171V98.711h34.021l18.238,25.692
		h12.995L258.782,98.153z M211.587,88.657V67.061h39.283c9.309,0,13.963,3.726,13.963,11.173c0,6.95-4.314,10.423-12.939,10.423
		H211.587z"/>
	<path fill="#FFFFFF" d="M168.907,63.989c-7.945-6.081-17.78-9.123-29.509-9.123c-11.669,0-21.535,3.042-29.602,9.123
		c-9.184,6.951-13.777,15.825-13.777,26.623c0,10.984,4.529,19.89,13.591,26.717c7.942,6.02,17.873,9.029,29.788,9.029
		c11.79,0,21.657-2.979,29.601-8.937c9.06-6.825,13.592-15.763,13.592-26.81C182.591,79.814,178.029,70.94,168.907,63.989
		 M162.344,109.044c-5.741,4.716-13.39,7.075-22.946,7.075c-9.62,0-17.315-2.345-23.086-7.029
		c-5.772-4.686-8.657-10.845-8.657-18.479c0-7.384,2.947-13.48,8.843-18.291c5.895-4.809,13.529-7.215,22.9-7.215
		c8.564,0,15.732,2.11,21.503,6.331c6.702,4.902,10.053,11.294,10.053,19.175C170.954,98.185,168.083,104.328,162.344,109.044"/>
</g>
</svg>
