<?xml version="1.0" encoding="utf-8"?>
<!-- Generator: Adobe Illustrator 15.1.0, SVG Export Plug-In . SVG Version: 6.00 Build 0)  -->
<!DOCTYPE svg PUBLIC "-//W3C//DTD SVG 1.1//EN" "http://www.w3.org/Graphics/SVG/1.1/DTD/svg11.dtd">
<svg version="1.1" id="Layer_1" xmlns="http://www.w3.org/2000/svg" xmlns:xlink="http://www.w3.org/1999/xlink" x="0px" y="0px"
	 width="25px" height="25px" viewBox="0 0 25 25" enable-background="new 0 0 25 25" xml:space="preserve">
<g>
	<path d="M-37.764,9.839c-5.229,0-9.484-4.255-9.484-9.485s4.255-9.485,9.484-9.485c5.23,0,9.484,4.255,9.484,9.485
		S-32.533,9.839-37.764,9.839z M-37.764-6.619c-3.844,0-6.972,3.128-6.972,6.973s3.128,6.973,6.972,6.973
		c3.845,0,6.972-3.129,6.972-6.973S-33.919-6.619-37.764-6.619z"/>
</g>
<g>
	<line fill="#FFFFFF" x1="-32.948" y1="6.735" x2="-27.413" y2="13.171"/>
	<rect x="-34.425" y="8.697" transform="matrix(0.6521 0.7582 -0.7582 0.6521 -2.9545 26.3444)" width="8.488" height="2.512"/>
</g>
<g>
	<g>
		<g>
			<path d="M-37.533,4.881l0.566-2.662h-2.626l-0.541,2.662h-0.942l0.561-2.662h-1.312V1.291h1.508l0.475-2.288h-1.983v-0.929h2.179
				l0.565-2.676h0.927l-0.566,2.676h2.602l0.56-2.676h0.935l-0.567,2.676h1.312v0.929h-1.493l-0.476,2.288h1.969v0.928h-2.158
				l-0.553,2.662H-37.533z M-36.777,1.276l0.475-2.273h-2.613l-0.481,2.273H-36.777z"/>
		</g>
		<g>
			<path d="M-34.779-4.476L-35.348-1.8h1.342v0.677h-1.471l-0.527,2.539h1.998v0.677h-2.136l-0.553,2.663h-0.684l0.566-2.663h-2.884
				l-0.54,2.663h-0.685l0.561-2.663h-1.341V1.416h1.484l0.527-2.539h-2.012V-1.8h2.155l0.565-2.676h0.67L-38.875-1.8h2.858
				l0.56-2.676H-34.779 M-36.148-1.123h-2.87l-0.534,2.525h2.876L-36.148-1.123 M-34.47-4.728h-0.31h-0.679h-0.204l-0.042,0.2
				l-0.518,2.477h-2.344l0.501-2.373L-38-4.728h-0.31h-0.67h-0.204l-0.042,0.199l-0.523,2.477h-1.952h-0.251V-1.8v0.677v0.251h0.251
				h1.703l-0.423,2.037h-1.28h-0.251v0.251v0.677v0.252h0.251h1.032l-0.498,2.359l-0.064,0.303h0.31h0.685h0.205l0.041-0.201
				l0.5-2.461h2.368l-0.502,2.358l-0.064,0.304h0.311h0.684h0.204l0.042-0.2l0.511-2.462h1.932h0.252V2.093V1.416V1.165h-0.252
				h-1.689l0.423-2.037h1.267h0.252v-0.251V-1.8v-0.251h-0.252h-1.031l0.503-2.373L-34.47-4.728L-34.47-4.728z M-38.814-0.872h2.357
				L-36.88,1.15h-2.363L-38.814-0.872L-38.814-0.872z"/>
		</g>
	</g>
</g>
<g>
	<path fill="#010101" d="M54.24-15.854c3.42,0,6.821,3.404,8.535,5.586c-1.703,2.24-5.1,5.749-8.535,5.749
		c-3.419,0-6.826-3.515-8.535-5.755C47.413-12.456,50.803-15.854,54.24-15.854 M54.24-17.854c-6.068,0-10.988,7.567-10.988,7.567
		s4.92,7.769,10.988,7.769s10.989-7.769,10.989-7.769S60.309-17.854,54.24-17.854L54.24-17.854z"/>
</g>
<path fill="#010101" d="M58.366-10.266c0,2.256-1.83,4.083-4.086,4.083c-2.254,0-4.083-1.827-4.083-4.083
	c0-2.258,1.829-4.085,4.083-4.085C56.536-14.352,58.366-12.524,58.366-10.266z"/>
<path fill="#0B0204" stroke="#010101" stroke-miterlimit="10" d="M6.212,20.874V3.918l6.571-2.07l6.573,2.07v16.956l-6.573,2.07
	L6.212,20.874z M12.783,1.041l-7.468,2.31v18.09l7.468,2.31l7.47-2.31V3.351L12.783,1.041z"/>
<rect x="12.454" y="1.565" fill="#0B0204" stroke="#010101" stroke-miterlimit="10" width="0.66" height="21.863"/>
</svg>
