<?xml version="1.0" encoding="utf-8"?>
<!-- Generator: Adobe Illustrator 15.1.0, SVG Export Plug-In . SVG Version: 6.00 Build 0)  -->
<!DOCTYPE svg PUBLIC "-//W3C//DTD SVG 1.1//EN" "http://www.w3.org/Graphics/SVG/1.1/DTD/svg11.dtd">
<svg version="1.1" id="Layer_1" xmlns="http://www.w3.org/2000/svg" xmlns:xlink="http://www.w3.org/1999/xlink" x="0px" y="0px"
	 width="1024px" height="768px" viewBox="0 0 1024 768" enable-background="new 0 0 1024 768" xml:space="preserve">
<g id="Layer_3">
</g>
<g id="Layer_1_1_">
	<path d="M133.197,3.811h2.935V0.175h-2.935c-2.428,0.001-4.403,2.141-4.403,4.771V6.78h-2.936v3.647l2.936-0.001v8.831h3.67v-8.829
		h3.668V6.78h-3.668V4.911C132.464,4.282,132.852,3.811,133.197,3.811z"/>
	<g>
		<rect x="163.598" y="6.188" width="3.653" height="12.785"/>
		<path d="M177.542,6.917c-1.36-0.764-3.367-0.829-4.812-0.168V6.188h-3.652v12.785h3.652v-8.178l0.588-0.626
			c0.369-0.178,2.096-0.26,2.438-0.066c0.26,0.145,0.627,0.741,0.627,1.106v7.764h3.653v-7.764
			C180.035,9.533,178.985,7.726,177.542,6.917z"/>
		<circle cx="165.424" cy="2.534" r="2.283"/>
	</g>
	<g>
		<path d="M11.122,14.495l-0.691,0.427L4.962,6.053l0.691-0.426L3.187,1.628L0.692,3.167c-0.684,0.422-0.898,1.326-0.477,2.01
			l8.868,14.379c0.421,0.684,1.326,0.898,2.01,0.477l2.495-1.538L11.122,14.495z"/>
		<rect x="3.535" y="1.823" transform="matrix(0.5249 0.8511 -0.8511 0.5249 5.1206 -3.7171)" width="4.71" height="1.812"/>
		<rect x="11.446" y="14.669" transform="matrix(0.5249 0.8512 -0.8512 0.5249 19.8198 -4.3578)" width="4.735" height="1.812"/>
	</g>
	<path d="M106.118,3.198c-0.824,0.366-1.712,0.613-2.643,0.725c0.95-0.569,1.68-1.472,2.022-2.546
		c-0.888,0.527-1.874,0.911-2.922,1.117c-0.839-0.895-2.036-1.454-3.358-1.454c-2.542,0-4.603,2.061-4.603,4.602
		c0,0.361,0.04,0.712,0.119,1.049c-3.825-0.192-7.216-2.024-9.486-4.808c-0.396,0.68-0.623,1.47-0.623,2.313
		c0,1.597,0.812,3.005,2.047,3.83c-0.754-0.023-1.464-0.231-2.084-0.575c-0.001,0.019-0.001,0.039-0.001,0.057
		c0,2.231,1.586,4.09,3.692,4.513c-0.387,0.105-0.793,0.162-1.212,0.162c-0.296,0-0.585-0.029-0.866-0.082
		c0.585,1.828,2.285,3.157,4.299,3.196c-1.575,1.232-3.56,1.97-5.715,1.97c-0.372,0-0.738-0.021-1.098-0.064
		c2.037,1.305,4.456,2.068,7.055,2.068c8.465,0,13.095-7.014,13.095-13.095c0-0.2-0.005-0.399-0.014-0.596
		C104.723,4.932,105.502,4.122,106.118,3.198z"/>
	<g id="Layer_2">
	</g>
	<path stroke="#000000" stroke-miterlimit="10" d="M60.912,2.77H41.228H40.5v15h20v-15H60.912z M58.545,3.77l-7.474,7.686
		L43.596,3.77H58.545z M59.5,16.77h-18v-13h0.701l8.871,9.119l8.867-9.119H59.5V16.77z"/>
</g>
</svg>
