<?xml version="1.0" encoding="utf-8"?>
<!-- Generator: Adobe Illustrator 15.1.0, SVG Export Plug-In . SVG Version: 6.00 Build 0)  -->
<!DOCTYPE svg PUBLIC "-//W3C//DTD SVG 1.1//EN" "http://www.w3.org/Graphics/SVG/1.1/DTD/svg11.dtd">
<svg version="1.1" id="Layer_1" xmlns="http://www.w3.org/2000/svg" xmlns:xlink="http://www.w3.org/1999/xlink" x="0px" y="0px"
	 width="25px" height="25px" viewBox="0 0 25 25" enable-background="new 0 0 25 25" xml:space="preserve">
<g>
	<g>
		<g>
			<path d="M13.037,20.93l0.999-4.697H9.401L8.447,20.93H6.785l0.99-4.697H5.458v-1.639H8.12l0.838-4.038h-3.5V8.917h3.846
				l0.997-4.724h1.635l-0.999,4.724h4.592l0.988-4.724h1.651l-1,4.724h2.314v1.639H16.85l-0.842,4.038h3.477v1.639h-3.809
				L14.7,20.93H13.037z M14.372,14.568l0.838-4.013h-4.612l-0.849,4.013H14.372z"/>
		</g>
		<g>
			<path d="M17.897,4.416l-1.003,4.724h2.368v1.194h-2.596l-0.931,4.481h3.526v1.195h-3.771l-0.976,4.699h-1.208l0.999-4.699H9.221
				l-0.953,4.699H7.059l0.99-4.699H5.68v-1.195H8.3l0.93-4.481H5.68V9.139h3.804l0.997-4.724h1.183l-0.996,4.724h5.044l0.988-4.724
				H17.897 M15.481,10.333h-5.065l-0.942,4.456h5.076L15.481,10.333 M18.443,3.971h-0.548h-1.198h-0.36l-0.073,0.354l-0.915,4.372
				h-4.137l0.885-4.188l0.116-0.537h-0.548h-1.182h-0.36l-0.074,0.354L9.125,8.696H5.68H5.237v0.443v1.194v0.443H5.68h3.006
				L7.94,14.371H5.68H5.237v0.443v1.195v0.445H5.68h1.822l-0.879,4.164l-0.111,0.533h0.547h1.209h0.361l0.072-0.354l0.882-4.344
				h4.18l-0.886,4.162l-0.112,0.535h0.549h1.207h0.36l0.074-0.354l0.9-4.346h3.411h0.444V16.01v-1.195v-0.443h-0.444h-2.98
				l0.745-3.595h2.237h0.444v-0.443V9.139V8.696H19.27h-1.82l0.888-4.188L18.443,3.971L18.443,3.971z M10.776,10.776h4.161
				l-0.747,3.569h-4.171L10.776,10.776L10.776,10.776z"/>
		</g>
	</g>
</g>
</svg>
