<?xml version="1.0" encoding="utf-8"?>
<!-- Generator: Adobe Illustrator 15.1.0, SVG Export Plug-In . SVG Version: 6.00 Build 0)  -->
<!DOCTYPE svg PUBLIC "-//W3C//DTD SVG 1.1//EN" "http://www.w3.org/Graphics/SVG/1.1/DTD/svg11.dtd">
<svg version="1.1" id="Layer_1" xmlns="http://www.w3.org/2000/svg" xmlns:xlink="http://www.w3.org/1999/xlink" x="0px" y="0px"
	 width="25px" height="25px" viewBox="0 0 25 25" enable-background="new 0 0 25 25" xml:space="preserve">
<g>
	<path fill="#010101" d="M-31.427,6.48c3.42,0,6.822,3.404,8.535,5.586c-1.703,2.241-5.1,5.749-8.535,5.749
		c-3.419,0-6.826-3.515-8.535-5.752C-38.254,9.878-34.864,6.48-31.427,6.48 M-31.427,4.48c-6.068,0-10.988,7.567-10.988,7.567
		s4.92,7.77,10.988,7.77c6.068,0,10.99-7.77,10.99-7.77S-25.357,4.48-31.427,4.48L-31.427,4.48z"/>
</g>
<path fill="#010101" d="M-27.301,12.067c0,2.256-1.83,4.083-4.086,4.083c-2.254,0-4.083-1.827-4.083-4.083
	c0-2.258,1.829-4.085,4.083-4.085C-29.131,7.982-27.301,9.809-27.301,12.067z"/>
<rect x="14.25" y="-28.468" fill="#010101" width="10.75" height="1.875"/>
<rect x="14.25" y="-24.111" fill="#010101" width="10.75" height="1.875"/>
<rect x="14.25" y="-19.754" fill="#010101" width="10.75" height="1.875"/>
<g>
	<circle fill="#010101" cx="7.63" cy="-25.073" r="4.036"/>
	<path fill="#010101" d="M1.135-12.841L1.135-12.841c0-3.793,1.36-6.868,5.153-6.868h2.54c3.792,0,5.557,3.075,5.557,6.868l0,0"/>
</g>
<polygon fill="#010101" points="22.484,-15.594 19.625,-13.082 16.768,-15.594 "/>
<circle fill="none" stroke="#010101" stroke-width="2.5" stroke-miterlimit="10" cx="9.99" cy="10.048" r="7.165"/>
<line fill="none" stroke="#010101" stroke-width="2.5" stroke-miterlimit="10" x1="14.668" y1="14.451" x2="22.758" y2="22.076"/>
</svg>
